<svg id="Layer_1" data-name="Layer 1" xmlns="http://www.w3.org/2000/svg" viewBox="0 0 1381.04 683.14"><defs><style>.cls-1,.cls-2,.cls-3,.cls-4{fill:none;stroke:#4abc93;stroke-width:16px;}.cls-1,.cls-4,.cls-5{stroke-miterlimit:10;}.cls-2,.cls-3{stroke-linejoin:round;}.cls-3,.cls-4{stroke-linecap:round;}.cls-5{font-size:272.07px;fill:#fff;stroke:#fff;stroke-width:3px;font-family:Comfortaa-Light, Comfortaa;letter-spacing:0.11em;}</style></defs><title>jamak-logo-word</title><circle class="cls-1" cx="312.59" cy="291.74" r="16.36"/><circle class="cls-1" cx="331.25" cy="76.66" r="16.36"/><path class="cls-2" d="M615.34,588.44l-13.88,38.67a147.19,147.19,0,0,1-284.69-27.75L375,571.27l19-9.3" transform="translate(-308.77 -280.68)"/><line class="cls-1" x1="336.55" y1="61.18" x2="348.83" y2="25.37"/><circle class="cls-1" cx="99.43" cy="273.21" r="16.36"/><path class="cls-3" d="M446,597.56a34,34,0,0,0,58.66-10.65l90.16-263L607,288.68l27.76,9.52L707.09,323,626.67,556.94" transform="translate(-308.77 -280.68)"/><path class="cls-4" d="M389.25,618.72a95.45,95.45,0,0,0,60,49.42c27.13,7.41,55.71-.3,76.34-19.19a97.16,97.16,0,0,0,24.94-37C580.38,528,604,456,634.71,372.82" transform="translate(-308.77 -280.68)"/><text class="cls-5" transform="translate(401.86 415.04)">amak</text><text x="-308.77" y="-280.68"></text><text x="-308.77" y="-280.68"></text></svg>