<svg id="Layer_1" data-name="Layer 1" xmlns="http://www.w3.org/2000/svg" viewBox="0 0 410.32 457.17"><defs><style>.cls-1,.cls-2,.cls-3,.cls-4{fill:none;stroke:#4abc93;stroke-width:20px;}.cls-1,.cls-4{stroke-miterlimit:10;}.cls-2,.cls-3{stroke-linejoin:round;}.cls-3,.cls-4{stroke-linecap:round;}</style></defs><title>jamak-logo-favicon</title><circle class="cls-1" cx="314.59" cy="293.74" r="16.36"/><circle class="cls-1" cx="333.25" cy="78.66" r="16.36"/><path class="cls-2" d="M1063,615.41l-13.87,38.68a147.19,147.19,0,0,1-284.69-27.75l58.19-28.09,19-9.3" transform="translate(-754.48 -305.66)"/><line class="cls-1" x1="338.55" y1="63.18" x2="350.83" y2="27.37"/><circle class="cls-1" cx="101.43" cy="275.21" r="16.36"/><path class="cls-3" d="M893.74,624.54a34,34,0,0,0,58.66-10.65l90.16-263,12.09-35.27,27.77,9.52L1154.79,350l-80.42,233.92" transform="translate(-754.48 -305.66)"/><path class="cls-4" d="M837,645.7a95.4,95.4,0,0,0,60,49.42c27.12,7.4,55.7-.3,76.33-19.19a97.16,97.16,0,0,0,24.94-37c29.82-83.9,53.48-155.93,84.16-239.11" transform="translate(-754.48 -305.66)"/></svg>